<mxfile host="Electron" agent="Mozilla/5.0 (Windows NT 10.0; Win64; x64) AppleWebKit/537.36 (KHTML, like Gecko) draw.io/27.0.9 Chrome/134.0.6998.205 Electron/35.4.0 Safari/537.36" version="27.0.9">
  <diagram name="Page-1" id="K9oWw0ABZeYeirIRk8zI">
    <mxGraphModel dx="1622" dy="509" grid="1" gridSize="10" guides="1" tooltips="1" connect="1" arrows="1" fold="1" page="1" pageScale="1" pageWidth="850" pageHeight="1100" math="0" shadow="0">
      <root>
        <mxCell id="0" />
        <mxCell id="1" parent="0" />
        <mxCell id="QcEKkASpiuedd_H60k3Y-1" value="end&amp;nbsp;" style="ellipse;whiteSpace=wrap;html=1;" parent="1" vertex="1">
          <mxGeometry x="-485" y="490" width="120" height="80" as="geometry" />
        </mxCell>
        <mxCell id="2r6iEMGPeaFFU-bhF9T7-7" value="" style="edgeStyle=orthogonalEdgeStyle;rounded=0;orthogonalLoop=1;jettySize=auto;html=1;" edge="1" parent="1" source="QcEKkASpiuedd_H60k3Y-2" target="QcEKkASpiuedd_H60k3Y-4">
          <mxGeometry relative="1" as="geometry" />
        </mxCell>
        <mxCell id="QcEKkASpiuedd_H60k3Y-2" value="start" style="ellipse;whiteSpace=wrap;html=1;" parent="1" vertex="1">
          <mxGeometry x="-470" y="30" width="120" height="80" as="geometry" />
        </mxCell>
        <mxCell id="2r6iEMGPeaFFU-bhF9T7-5" value="" style="edgeStyle=orthogonalEdgeStyle;rounded=0;orthogonalLoop=1;jettySize=auto;html=1;" edge="1" parent="1" source="QcEKkASpiuedd_H60k3Y-3" target="QcEKkASpiuedd_H60k3Y-6">
          <mxGeometry relative="1" as="geometry" />
        </mxCell>
        <mxCell id="QcEKkASpiuedd_H60k3Y-3" value="randomWord =&lt;div&gt;&quot; Rabbit &quot;&lt;/div&gt;" style="rounded=0;whiteSpace=wrap;html=1;" parent="1" vertex="1">
          <mxGeometry x="-470" y="230" width="120" height="60" as="geometry" />
        </mxCell>
        <mxCell id="2r6iEMGPeaFFU-bhF9T7-6" value="" style="edgeStyle=orthogonalEdgeStyle;rounded=0;orthogonalLoop=1;jettySize=auto;html=1;" edge="1" parent="1" source="QcEKkASpiuedd_H60k3Y-4" target="QcEKkASpiuedd_H60k3Y-3">
          <mxGeometry relative="1" as="geometry" />
        </mxCell>
        <mxCell id="QcEKkASpiuedd_H60k3Y-4" value="dictionnary =&lt;div&gt;[words ]&lt;/div&gt;" style="rounded=0;whiteSpace=wrap;html=1;" parent="1" vertex="1">
          <mxGeometry x="-470" y="130" width="120" height="60" as="geometry" />
        </mxCell>
        <mxCell id="2r6iEMGPeaFFU-bhF9T7-2" value="" style="edgeStyle=orthogonalEdgeStyle;rounded=0;orthogonalLoop=1;jettySize=auto;html=1;" edge="1" parent="1" source="QcEKkASpiuedd_H60k3Y-6" target="2r6iEMGPeaFFU-bhF9T7-1">
          <mxGeometry relative="1" as="geometry" />
        </mxCell>
        <mxCell id="2r6iEMGPeaFFU-bhF9T7-4" value="" style="edgeStyle=orthogonalEdgeStyle;rounded=0;orthogonalLoop=1;jettySize=auto;html=1;" edge="1" parent="1" source="QcEKkASpiuedd_H60k3Y-6" target="QcEKkASpiuedd_H60k3Y-1">
          <mxGeometry relative="1" as="geometry" />
        </mxCell>
        <mxCell id="QcEKkASpiuedd_H60k3Y-6" value="while andomWord !=&lt;div&gt;Rabbit&lt;/div&gt;" style="rhombus;whiteSpace=wrap;html=1;" parent="1" vertex="1">
          <mxGeometry x="-500" y="330" width="150" height="120" as="geometry" />
        </mxCell>
        <mxCell id="2r6iEMGPeaFFU-bhF9T7-3" style="edgeStyle=orthogonalEdgeStyle;rounded=0;orthogonalLoop=1;jettySize=auto;html=1;exitX=0.5;exitY=1;exitDx=0;exitDy=0;entryX=1;entryY=0.5;entryDx=0;entryDy=0;" edge="1" parent="1" source="2r6iEMGPeaFFU-bhF9T7-1" target="QcEKkASpiuedd_H60k3Y-1">
          <mxGeometry relative="1" as="geometry">
            <mxPoint x="-240" y="540" as="targetPoint" />
          </mxGeometry>
        </mxCell>
        <mxCell id="2r6iEMGPeaFFU-bhF9T7-1" value="output &quot; not found&quot;" style="rounded=0;whiteSpace=wrap;html=1;" vertex="1" parent="1">
          <mxGeometry x="-300" y="360" width="120" height="60" as="geometry" />
        </mxCell>
      </root>
    </mxGraphModel>
  </diagram>
</mxfile>
